<svg width="351" height="325" viewBox="0 0 351 325" fill="none" xmlns="http://www.w3.org/2000/svg">
<path d="M-113.642 162.121C-77.1001 204.706 -25.2942 231.234 30.6175 235.992C86.5291 240.75 142.073 223.357 185.285 187.56C228.496 151.762 255.919 100.423 261.646 44.6027C267.372 -11.218 250.945 -67.0548 215.902 -110.881C180.858 -154.707 130.003 -183.015 74.2901 -189.709C18.5771 -196.402 -37.5361 -180.946 -81.9631 -146.667C-126.39 -112.389 -155.576 -62.0326 -163.235 -6.44395C-170.893 49.1447 -156.411 105.517 -122.909 150.532L-65.3769 107.713C-87.652 77.7843 -97.2805 40.3036 -92.1886 3.34412C-87.0967 -33.6153 -67.6917 -67.0961 -38.1534 -89.8867C-8.61502 -112.677 28.6931 -122.954 65.7353 -118.504C102.777 -114.054 136.59 -95.232 159.889 -66.0932C183.188 -36.9544 194.111 0.16996 190.303 37.2837C186.496 74.3975 168.263 108.531 139.533 132.332C110.802 156.133 73.8727 167.697 36.6985 164.534C-0.475681 161.37 -34.9201 143.732 -59.2156 115.419L-113.642 162.121Z" fill="#9EB8F7"/>
<circle cx="286" cy="163" r="26" fill="#9EB8F7"/>
<circle cx="170.5" cy="237.5" r="11.5" fill="#9EB8F7"/>
</svg>
